<?xml version="1.0" encoding="UTF-8"?>
<svg xmlns="http://www.w3.org/2000/svg" xmlns:xlink="http://www.w3.org/1999/xlink" viewBox="0 0 64 64" width="64px" height="64px">
<defs>
<linearGradient id="linear0" gradientUnits="userSpaceOnUse" x1="32" y1="4.333" x2="32" y2="58.493999" >
<stop offset="0" style="stop-color:rgb(85.09804%,87.843138%,12.941177%);stop-opacity:1;"/>
<stop offset="1" style="stop-color:rgb(98.431373%,52.941179%,16.862746%);stop-opacity:1;"/>
</linearGradient>
<linearGradient id="linear1" gradientUnits="userSpaceOnUse" x1="32" y1="26.417" x2="32" y2="37.668999" >
<stop offset="0" style="stop-color:rgb(91.764706%,93.333334%,51.372552%);stop-opacity:1;"/>
<stop offset="1" style="stop-color:rgb(99.215686%,77.254903%,60.000002%);stop-opacity:1;"/>
</linearGradient>
<linearGradient id="linear2" gradientUnits="userSpaceOnUse" x1="32" y1="4.333" x2="32" y2="58.493999" >
<stop offset="0" style="stop-color:rgb(85.09804%,87.843138%,12.941177%);stop-opacity:1;"/>
<stop offset="1" style="stop-color:rgb(98.431373%,52.941179%,16.862746%);stop-opacity:1;"/>
</linearGradient>
<linearGradient id="linear3" gradientUnits="userSpaceOnUse" x1="32" y1="4.333" x2="32" y2="58.493999" >
<stop offset="0" style="stop-color:rgb(85.09804%,87.843138%,12.941177%);stop-opacity:1;"/>
<stop offset="1" style="stop-color:rgb(98.431373%,52.941179%,16.862746%);stop-opacity:1;"/>
</linearGradient>
<linearGradient id="linear4" gradientUnits="userSpaceOnUse" x1="46" y1="4.333" x2="46" y2="58.493999" >
<stop offset="0" style="stop-color:rgb(85.09804%,87.843138%,12.941177%);stop-opacity:1;"/>
<stop offset="1" style="stop-color:rgb(98.431373%,52.941179%,16.862746%);stop-opacity:1;"/>
</linearGradient>
<linearGradient id="linear5" gradientUnits="userSpaceOnUse" x1="46" y1="4.333" x2="46" y2="58.493999" >
<stop offset="0" style="stop-color:rgb(85.09804%,87.843138%,12.941177%);stop-opacity:1;"/>
<stop offset="1" style="stop-color:rgb(98.431373%,52.941179%,16.862746%);stop-opacity:1;"/>
</linearGradient>
</defs>
<g id="surface177377519">
<path style=" stroke:none;fill-rule:nonzero;fill:url(#linear0);" d="M 33.003906 58 L 30.996094 58 C 28.792969 58 27 56.207031 27 54.003906 L 27 52.84375 C 27 51.988281 26.429688 51.222656 25.578125 50.933594 C 24.757812 50.65625 23.945312 50.316406 23.164062 49.929688 C 22.355469 49.53125 21.402344 49.667969 20.800781 50.273438 L 19.976562 51.09375 C 18.417969 52.652344 15.882812 52.652344 14.324219 51.09375 L 12.90625 49.675781 C 11.347656 48.117188 11.347656 45.582031 12.90625 44.023438 L 13.730469 43.199219 C 14.332031 42.597656 14.46875 41.648438 14.070312 40.835938 C 13.683594 40.054688 13.34375 39.242188 13.066406 38.421875 C 12.777344 37.570312 12.011719 37 11.15625 37 L 9.996094 37 C 7.792969 37 6 35.207031 6 33.003906 L 6 30.996094 C 6 28.792969 7.792969 27 9.996094 27 L 11.15625 27 C 12.011719 27 12.777344 26.429688 13.066406 25.578125 C 13.34375 24.757812 13.683594 23.945312 14.070312 23.164062 C 14.46875 22.351562 14.332031 21.402344 13.726562 20.800781 L 12.90625 19.976562 C 11.347656 18.417969 11.347656 15.882812 12.90625 14.324219 L 14.324219 12.90625 C 15.882812 11.347656 18.417969 11.347656 19.976562 12.90625 L 20.800781 13.730469 C 21.402344 14.335938 22.355469 14.472656 23.164062 14.070312 C 23.9375 13.6875 24.75 13.351562 25.574219 13.074219 C 26.429688 12.78125 27 12.015625 27 11.164062 L 27 11 C 27 8.242188 29.242188 6 32 6 L 32 8 C 30.347656 8 29 9.347656 29 11 L 29 11.164062 C 29 12.871094 27.882812 14.402344 26.21875 14.96875 C 25.476562 15.21875 24.742188 15.519531 24.046875 15.863281 C 22.46875 16.640625 20.59375 16.351562 19.386719 15.144531 L 18.5625 14.320312 C 17.785156 13.539062 16.519531 13.539062 15.738281 14.320312 L 14.320312 15.738281 C 13.542969 16.515625 13.542969 17.785156 14.320312 18.5625 L 15.144531 19.382812 C 16.355469 20.59375 16.644531 22.46875 15.863281 24.046875 C 15.515625 24.753906 15.210938 25.484375 14.960938 26.222656 C 14.394531 27.882812 12.867188 29 11.15625 29 L 9.996094 29 C 8.894531 29 8 29.894531 8 30.996094 L 8 33.003906 C 8 34.105469 8.894531 35 9.996094 35 L 11.15625 35 C 12.867188 35 14.394531 36.117188 14.960938 37.777344 C 15.210938 38.515625 15.515625 39.246094 15.863281 39.949219 C 16.640625 41.527344 16.351562 43.402344 15.140625 44.613281 L 14.320312 45.4375 C 13.539062 46.214844 13.539062 47.480469 14.320312 48.261719 L 15.738281 49.679688 C 16.519531 50.457031 17.785156 50.457031 18.5625 49.679688 L 19.382812 48.855469 C 20.59375 47.644531 22.472656 47.355469 24.046875 48.136719 C 24.753906 48.484375 25.484375 48.789062 26.222656 49.039062 C 27.882812 49.605469 29 51.132812 29 52.84375 L 29 54.003906 C 29 55.105469 29.894531 56 30.996094 56 L 33.003906 56 C 34.105469 56 35 55.105469 35 54.003906 L 35 52.84375 C 35 51.132812 36.117188 49.605469 37.777344 49.039062 C 38.515625 48.789062 39.246094 48.484375 39.949219 48.136719 C 41.527344 47.355469 43.402344 47.644531 44.613281 48.859375 L 45.4375 49.679688 C 46.214844 50.460938 47.480469 50.460938 48.261719 49.679688 L 49.679688 48.261719 C 50.457031 47.484375 50.457031 46.214844 49.679688 45.4375 L 48.804688 44.5625 C 47.617188 43.375 47.339844 41.546875 48.109375 40.011719 C 48.46875 39.289062 48.785156 38.539062 49.046875 37.777344 C 49.609375 36.117188 51.140625 35 52.847656 35 L 53 35 C 54.652344 35 56 33.652344 56 32 L 58 32 C 58 34.757812 55.757812 37 53 37 L 52.847656 37 C 51.996094 37 51.230469 37.570312 50.9375 38.425781 C 50.648438 39.269531 50.300781 40.105469 49.898438 40.90625 C 49.515625 41.671875 49.644531 42.570312 50.21875 43.148438 L 51.09375 44.023438 C 52.652344 45.582031 52.652344 48.117188 51.09375 49.675781 L 49.675781 51.09375 C 48.117188 52.652344 45.582031 52.652344 44.023438 51.09375 L 43.199219 50.269531 C 42.597656 49.667969 41.648438 49.53125 40.835938 49.929688 C 40.054688 50.316406 39.242188 50.65625 38.421875 50.933594 C 37.570312 51.222656 37 51.988281 37 52.84375 L 37 54.003906 C 37 56.207031 35.207031 58 33.003906 58 Z M 33.003906 58 "/>
<path style=" stroke:none;fill-rule:nonzero;fill:url(#linear1);" d="M 32 27 C 29.238281 27 27 29.238281 27 32 C 27 34.761719 29.238281 37 32 37 C 34.761719 37 37 34.761719 37 32 C 37 29.238281 34.761719 27 32 27 Z M 32 27 "/>
<path style=" stroke:none;fill-rule:nonzero;fill:url(#linear2);" d="M 32 48 C 23.179688 48 16 40.820312 16 32 C 16 23.179688 23.179688 16 32 16 L 32 18 C 24.28125 18 18 24.28125 18 32 C 18 39.71875 24.28125 46 32 46 C 39.71875 46 46 39.71875 46 32 L 48 32 C 48 40.820312 40.820312 48 32 48 Z M 32 48 "/>
<path style=" stroke:none;fill-rule:nonzero;fill:url(#linear3);" d="M 32 43 C 25.933594 43 21 38.066406 21 32 C 21 25.933594 25.933594 21 32 21 L 32 23 C 27.035156 23 23 27.035156 23 32 C 23 36.964844 27.035156 41 32 41 C 36.964844 41 41 36.964844 41 32 L 43 32 C 43 38.066406 38.066406 43 32 43 Z M 32 43 "/>
<path style=" stroke:none;fill-rule:nonzero;fill:url(#linear4);" d="M 46 30 C 44.347656 30 43 28.652344 43 27 L 43 26.476562 C 42.6875 26.367188 42.425781 26.257812 42.167969 26.136719 L 41.757812 26.484375 C 40.628906 27.617188 38.648438 27.621094 37.515625 26.484375 C 36.949219 25.921875 36.636719 25.164062 36.636719 24.363281 C 36.636719 23.5625 36.949219 22.808594 37.515625 22.242188 L 37.886719 21.875 C 37.742188 21.574219 37.632812 21.3125 37.535156 21.039062 L 37 21 C 35.347656 21 34 19.652344 34 18 C 34 16.347656 35.347656 15 37 15 L 37.523438 15 C 37.632812 14.6875 37.742188 14.425781 37.863281 14.167969 L 37.515625 13.757812 C 36.949219 13.191406 36.636719 12.4375 36.636719 11.636719 C 36.636719 10.835938 36.949219 10.082031 37.515625 9.515625 C 38.648438 8.382812 40.625 8.382812 41.757812 9.515625 L 42.125 9.886719 C 42.425781 9.742188 42.6875 9.632812 42.960938 9.535156 L 43 9 C 43 7.347656 44.347656 6 46 6 C 47.652344 6 49 7.347656 49 9 L 49 9.523438 C 49.3125 9.632812 49.574219 9.742188 49.832031 9.863281 L 50.242188 9.515625 C 51.371094 8.382812 53.351562 8.378906 54.484375 9.515625 C 55.050781 10.078125 55.363281 10.835938 55.363281 11.636719 C 55.363281 12.4375 55.050781 13.191406 54.484375 13.757812 L 54.113281 14.125 C 54.257812 14.425781 54.367188 14.6875 54.464844 14.960938 L 55 15 C 56.652344 15 58 16.347656 58 18 C 58 19.652344 56.652344 21 55 21 L 54.476562 21 C 54.367188 21.3125 54.257812 21.574219 54.136719 21.832031 L 54.484375 22.242188 C 55.050781 22.808594 55.363281 23.5625 55.363281 24.363281 C 55.363281 25.164062 55.050781 25.917969 54.484375 26.484375 C 53.351562 27.617188 51.375 27.617188 50.242188 26.484375 L 49.875 26.113281 C 49.574219 26.257812 49.3125 26.367188 49.039062 26.464844 L 49 27 C 49 28.652344 47.652344 30 46 30 Z M 42.113281 24.121094 C 42.417969 24.121094 42.726562 24.1875 43.019531 24.324219 C 43.21875 24.421875 43.421875 24.503906 43.628906 24.578125 C 44.464844 24.878906 45 25.621094 45 26.476562 L 45 27 C 45 27.550781 45.445312 28 46 28 C 46.550781 28 47 27.550781 47 27 L 47 26.476562 C 47 25.621094 47.535156 24.878906 48.363281 24.578125 C 48.578125 24.503906 48.78125 24.421875 48.976562 24.328125 C 49.777344 23.949219 50.683594 24.097656 51.285156 24.699219 L 51.65625 25.070312 C 52.035156 25.449219 52.691406 25.449219 53.070312 25.070312 C 53.257812 24.882812 53.363281 24.632812 53.363281 24.363281 C 53.363281 24.097656 53.257812 23.847656 53.070312 23.65625 L 52.699219 23.285156 C 52.097656 22.683594 51.949219 21.777344 52.324219 20.980469 C 52.421875 20.78125 52.503906 20.578125 52.578125 20.371094 C 52.878906 19.535156 53.621094 19 54.472656 19 L 55 19 C 55.550781 19 56 18.550781 56 18 C 56 17.449219 55.550781 17 55 17 L 54.476562 17 C 53.621094 17 52.878906 16.464844 52.578125 15.632812 C 52.503906 15.421875 52.421875 15.21875 52.328125 15.023438 C 51.949219 14.222656 52.097656 13.316406 52.699219 12.714844 L 53.070312 12.34375 C 53.261719 12.152344 53.363281 11.902344 53.363281 11.636719 C 53.363281 11.367188 53.261719 11.117188 53.070312 10.929688 C 52.691406 10.550781 52.035156 10.550781 51.65625 10.929688 L 51.285156 11.300781 C 50.683594 11.902344 49.777344 12.050781 48.980469 11.675781 C 48.78125 11.578125 48.578125 11.496094 48.371094 11.421875 C 47.535156 11.121094 47 10.378906 47 9.523438 L 47 9 C 47 8.449219 46.550781 8 46 8 C 45.449219 8 45 8.449219 45 9 L 45 9.523438 C 45 10.378906 44.464844 11.121094 43.632812 11.421875 C 43.421875 11.496094 43.21875 11.578125 43.023438 11.671875 C 42.222656 12.050781 41.316406 11.902344 40.714844 11.300781 L 40.34375 10.929688 C 39.964844 10.550781 39.308594 10.554688 38.929688 10.929688 C 38.742188 11.117188 38.636719 11.367188 38.636719 11.636719 C 38.636719 11.902344 38.738281 12.152344 38.929688 12.34375 L 39.300781 12.714844 C 39.902344 13.316406 40.050781 14.222656 39.675781 15.019531 C 39.578125 15.21875 39.496094 15.421875 39.421875 15.628906 C 39.121094 16.464844 38.378906 17 37.523438 17 L 37 17 C 36.449219 17 36 17.449219 36 18 C 36 18.550781 36.449219 19 37 19 L 37.523438 19 C 38.378906 19 39.121094 19.535156 39.421875 20.367188 C 39.496094 20.578125 39.578125 20.78125 39.671875 20.976562 C 40.050781 21.777344 39.902344 22.683594 39.300781 23.285156 L 38.929688 23.65625 C 38.738281 23.847656 38.636719 24.097656 38.636719 24.363281 C 38.636719 24.632812 38.738281 24.882812 38.929688 25.070312 C 39.308594 25.449219 39.964844 25.449219 40.34375 25.070312 L 40.714844 24.699219 C 41.09375 24.320312 41.597656 24.121094 42.113281 24.121094 Z M 42.113281 24.121094 "/>
<path style=" stroke:none;fill-rule:nonzero;fill:url(#linear5);" d="M 46 22 C 43.792969 22 42 20.207031 42 18 C 42 15.792969 43.792969 14 46 14 C 48.207031 14 50 15.792969 50 18 C 50 20.207031 48.207031 22 46 22 Z M 46 16 C 44.898438 16 44 16.898438 44 18 C 44 19.101562 44.898438 20 46 20 C 47.101562 20 48 19.101562 48 18 C 48 16.898438 47.101562 16 46 16 Z M 46 16 "/>
</g>
</svg>
