<?xml version="1.0" encoding="UTF-8"?>
<svg xmlns="http://www.w3.org/2000/svg" xmlns:xlink="http://www.w3.org/1999/xlink" viewBox="0 0 64 64" width="64px" height="64px">
<defs>
<linearGradient id="linear0" gradientUnits="userSpaceOnUse" x1="35" y1="30" x2="35" y2="34" >
<stop offset="0" style="stop-color:rgb(91.764706%,93.333334%,51.372552%);stop-opacity:1;"/>
<stop offset="1" style="stop-color:rgb(99.215686%,77.254903%,60.000002%);stop-opacity:1;"/>
</linearGradient>
<linearGradient id="linear1" gradientUnits="userSpaceOnUse" x1="27" y1="30" x2="27" y2="34" >
<stop offset="0" style="stop-color:rgb(91.764706%,93.333334%,51.372552%);stop-opacity:1;"/>
<stop offset="1" style="stop-color:rgb(99.215686%,77.254903%,60.000002%);stop-opacity:1;"/>
</linearGradient>
<linearGradient id="linear2" gradientUnits="userSpaceOnUse" x1="35" y1="42.125" x2="35" y2="45.876999" >
<stop offset="0" style="stop-color:rgb(91.764706%,93.333334%,51.372552%);stop-opacity:1;"/>
<stop offset="1" style="stop-color:rgb(99.215686%,77.254903%,60.000002%);stop-opacity:1;"/>
</linearGradient>
<linearGradient id="linear3" gradientUnits="userSpaceOnUse" x1="27" y1="42.125" x2="27" y2="45.876999" >
<stop offset="0" style="stop-color:rgb(91.764706%,93.333334%,51.372552%);stop-opacity:1;"/>
<stop offset="1" style="stop-color:rgb(99.215686%,77.254903%,60.000002%);stop-opacity:1;"/>
</linearGradient>
<linearGradient id="linear4" gradientUnits="userSpaceOnUse" x1="32" y1="10.167" x2="32" y2="53.546001" >
<stop offset="0" style="stop-color:rgb(85.09804%,87.843138%,12.941177%);stop-opacity:1;"/>
<stop offset="1" style="stop-color:rgb(98.431373%,52.941179%,16.862746%);stop-opacity:1;"/>
</linearGradient>
</defs>
<g id="surface177592751">
<path style=" stroke:none;fill-rule:nonzero;fill:url(#linear0);" d="M 35 30 C 33.894531 30 33 30.894531 33 32 C 33 33.105469 33.894531 34 35 34 C 36.105469 34 37 33.105469 37 32 C 37 30.894531 36.105469 30 35 30 Z M 35 30 "/>
<path style=" stroke:none;fill-rule:nonzero;fill:url(#linear1);" d="M 27 30 C 25.894531 30 25 30.894531 25 32 C 25 33.105469 25.894531 34 27 34 C 28.105469 34 29 33.105469 29 32 C 29 30.894531 28.105469 30 27 30 Z M 27 30 "/>
<path style=" stroke:none;fill-rule:nonzero;fill:url(#linear2);" d="M 35 42 C 33.894531 42 33 42.894531 33 44 C 33 45.105469 33.894531 46 35 46 C 36.105469 46 37 45.105469 37 44 C 37 42.894531 36.105469 42 35 42 Z M 35 42 "/>
<path style=" stroke:none;fill-rule:nonzero;fill:url(#linear3);" d="M 27 42 C 25.894531 42 25 42.894531 25 44 C 25 45.105469 25.894531 46 27 46 C 28.105469 46 29 45.105469 29 44 C 29 42.894531 28.105469 42 27 42 Z M 27 42 "/>
<path style=" stroke:none;fill-rule:nonzero;fill:url(#linear4);" d="M 55 43 C 56.652344 43 58 41.652344 58 40 L 58 14 C 58 12.347656 56.652344 11 55 11 L 19 11 C 17.347656 11 16 12.347656 16 14 L 16 23 L 12 23 C 10.347656 23 9 24.347656 9 26 L 9 27 C 7.347656 27 6 28.347656 6 30 L 6 34 C 6 35.652344 7.347656 37 9 37 L 9 39 C 7.347656 39 6 40.347656 6 42 L 6 46 C 6 47.652344 7.347656 49 9 49 L 9 50 C 9 50.351562 9.070312 50.6875 9.183594 51 L 6 51 L 6 53 L 58 53 L 58 51 L 52.84375 51 L 51.671875 48.652344 C 51.164062 47.632812 50.140625 47 49 47 L 46 47 L 46 43 Z M 18 14 C 18 13.449219 18.449219 13 19 13 L 55 13 C 55.550781 13 56 13.449219 56 14 L 56 40 C 56 40.550781 55.550781 41 55 41 L 41.816406 41 C 41.402344 39.839844 40.300781 39 39 39 L 52 39 C 53.101562 39 54 38.101562 54 37 L 54 17 C 54 15.898438 53.101562 15 52 15 L 22 15 C 20.898438 15 20 15.898438 20 17 L 20 23 L 18 23 Z M 39 27 L 39 26 C 39 24.347656 37.652344 23 36 23 L 22 23 L 22 17 L 52 17 L 52 37 L 39 37 C 40.652344 37 42 35.652344 42 34 L 42 30 C 42 28.347656 40.652344 27 39 27 Z M 11 26 C 11 25.449219 11.449219 25 12 25 L 36 25 C 36.550781 25 37 25.449219 37 26 L 37 27 L 11 27 Z M 8 34 L 8 30 C 8 29.449219 8.449219 29 9 29 L 39 29 C 39.550781 29 40 29.449219 40 30 L 40 34 C 40 34.550781 39.550781 35 39 35 L 21 35 L 21 34 C 21 32.898438 20.101562 32 19 32 L 13 32 C 11.898438 32 11 32.898438 11 34 L 11 35 L 9 35 C 8.449219 35 8 34.550781 8 34 Z M 19 35 L 13 35 L 13 34 L 19 34 Z M 11 37 L 37 37 L 37 39 L 11 39 Z M 8 46 L 8 42 C 8 41.449219 8.449219 41 9 41 L 39 41 C 39.550781 41 40 41.449219 40 42 L 40 46 C 40 46.550781 39.550781 47 39 47 L 21 47 L 21 46 C 21 44.898438 20.101562 44 19 44 L 13 44 C 11.898438 44 11 44.898438 11 46 L 11 47 L 9 47 C 8.449219 47 8 46.550781 8 46 Z M 19 47 L 13 47 L 13 46 L 19 46 Z M 12 51 C 11.449219 51 11 50.550781 11 50 L 11 49 L 37 49 L 37 50 C 37 50.550781 36.550781 51 36 51 Z M 49.882812 49.546875 L 50.609375 51 L 38.816406 51 C 38.929688 50.6875 39 50.351562 39 50 L 39 49 L 49 49 C 49.375 49 49.714844 49.210938 49.882812 49.546875 Z M 44 47 L 41.816406 47 C 41.929688 46.6875 42 46.351562 42 46 L 42 43 L 44 43 Z M 44 47 "/>
</g>
</svg>
